<svg version="1.2" xmlns="http://www.w3.org/2000/svg" viewBox="0 0 800 800" width="800" height="800" style="height: 40px; width: 40px">
                    <title>The Wound Pros Logo</title>
                    <style>
                        .s0 {
                            fill: #eb2127;
                        }
                    </style>
                    <g id="Layer">
                        <g id="Layer"></g>
                        <g id="Layer"></g>
                        <g id="Layer">
                            <g id="Layer">
                                <path id="Layer" fill-rule="evenodd" class="s0" d="m503.8 653.4h-208.7v-149h-149.1v-208.4h149.1v-148.9h208.7v148.9h149v208.4h-149zm-186.3-22.3h163.9v-148.9h149.1v-163.7h-149.1v-149h-163.9v149h-149.1v163.7h149.1z"></path>
                            </g>
                            <g id="Layer">
                                <path id="Layer" fill-rule="evenodd" class="s0" d="m399.4 774.6c-207.2 0-374.8-167.4-374.8-374.4 0-207 167.6-374.4 374.8-374.4 207.3 0 374.8 167.4 374.8 374.4 0 207-167.5 374.4-374.8 374.4zm350.9-374.4c0-193.8-156.8-350.5-350.9-350.5-194 0-350.9 156.7-350.9 350.5 0 193.8 156.9 350.5 350.9 350.5 194.1 0 350.9-156.7 350.9-350.5z"></path>
                            </g>
                        </g>
                    </g>
                </svg>